<?xml version="1.0" encoding="UTF-8" standalone="no"?>
<!-- Created with Inkscape (http://www.inkscape.org/) -->

<svg
   width="512"
   height="512"
   viewBox="0 0 135.46666 135.46667"
   version="1.1"
   id="svg1"
   inkscape:version="1.4.4 (dcaf3e7d9e, 2026-05-05)"
   sodipodi:docname="图标.svg"
   xml:space="preserve"
   inkscape:export-filename="../图标_工程_64.png"
   inkscape:export-xdpi="12"
   inkscape:export-ydpi="12"
   xmlns:inkscape="http://www.inkscape.org/namespaces/inkscape"
   xmlns:sodipodi="http://sodipodi.sourceforge.net/DTD/sodipodi-0.dtd"
   xmlns="http://www.w3.org/2000/svg"
   xmlns:svg="http://www.w3.org/2000/svg"
   xmlns:rdf="http://www.w3.org/1999/02/22-rdf-syntax-ns#"
   xmlns:cc="http://creativecommons.org/ns#"
   xmlns:dc="http://purl.org/dc/elements/1.1/"><sodipodi:namedview
     id="namedview1"
     pagecolor="#ffffff"
     bordercolor="#000000"
     borderopacity="0.25"
     inkscape:showpageshadow="2"
     inkscape:pageopacity="0.0"
     inkscape:pagecheckerboard="true"
     inkscape:deskcolor="#d1d1d1"
     inkscape:document-units="mm"
     inkscape:zoom="1.6523438"
     inkscape:cx="249.64538"
     inkscape:cy="257.8156"
     inkscape:window-width="1920"
     inkscape:window-height="1052"
     inkscape:window-x="0"
     inkscape:window-y="0"
     inkscape:window-maximized="1"
     inkscape:current-layer="layer1"
     showgrid="false" /><defs
     id="defs1"><rect
       x="1.8156028"
       y="4.2364066"
       width="504.73759"
       height="498.08038"
       id="rect1" /></defs><g
     inkscape:label="图层 1"
     inkscape:groupmode="layer"
     id="layer1"><circle
       style="fill:#657b83;fill-opacity:1;stroke-width:2.76956;paint-order:stroke fill markers"
       id="path1"
       cx="67.73333"
       cy="67.733337"
       r="66.145836"
       sodipodi:insensitive="true" /><g
       style="display:block"
       id="g1"
       transform="matrix(0.06614583,0,0,0.06614583,3.3998346,0)"
       sodipodi:insensitive="true"><path
         id="path9"
         style="opacity:1;fill:#eee8d5;stroke-width:0.696161"
         d="m 987.24113,363.47477 -19.89808,3.61491 -15.90004,3.49165 -21.83553,5.67561 -19.80572,6.61349 -17.77571,7.55138 -9.87199,4.30627 -6.90422,3.2143 -11.84022,5.36743 -11.77858,7.36648 -4.90517,3.15266 -4.93599,2.15313 -11.77858,7.36648 -8.81083,6.27451 -14.71552,9.45798 -13.68518,10.42669 -13.68519,10.42669 -12.68565,10.39587 -11.71695,9.36553 -15.59178,13.48691 -13.65436,11.42621 -13.65436,11.42622 -11.71695,9.36553 0.0616,1.99905 -2.96776,1.09197 -10.71742,9.33472 -12.68565,10.39587 -15.59178,13.4869 -8.78001,7.27402 -9.71789,9.3039 -7.78049,7.24321 -11.62449,12.36411 -4.84354,5.15171 -6.75014,8.21192 -10.62497,12.33329 -11.47042,17.36173 -11.37796,20.3603 -8.25612,24.26596 -5.38081,20.17541 -1.50597,16.05403 0.77042,24.98813 2.49213,15.93077 1.99905,-0.0616 0.15408,4.99763 4.49118,15.86913 8.45845,14.74634 12.51819,16.62212 10.27262,8.68756 16.3622,11.50122 5.05926,1.84497 4.09055,2.8753 6.02797,0.81463 0.0616,1.99905 7.08913,2.78285 16.1773,5.50408 16.11567,3.50503 8.08865,2.75204 12.05594,1.62924 24.11187,3.25849 13.05546,1.59843 21.08247,2.35142 10.05689,1.69088 28.07915,2.1357 44.10238,2.64214 20.08295,2.38224 16.02322,0.50645 14.05499,1.56761 26.04928,1.19781 14.05499,1.56762 24.98824,-0.77043 -0.25991,24.01942 -3.54927,47.13176 -2.25898,24.08105 -2.51891,48.10062 -3.76498,40.1351 -2.01245,32.0772 -0.9379,2.0299 -0.56807,14.0242 -2.38222,20.0829 -1.69087,10.0569 -0.62973,12.0251 -1.62924,12.056 -1.50598,16.054 -2.44387,18.0839 -1.69088,10.0569 -2.3206,22.082 -4.25801,24.1427 -2.38224,20.0829 -1.81414,6.0588 -1.62925,12.0559 -1.69088,10.0569 -1.62924,12.056 -4.2272,25.1422 -5.97971,33.2 -1.62925,12.056 -1.78333,7.0583 -0.75299,8.027 -4.16556,27.1412 -3.88821,36.137 -1.25945,24.0503 -5.21334,-6.8426 -10.33424,-10.6866 -11.42621,-13.6544 -10.33424,-10.6866 -3.15266,-4.9052 -4.12137,-3.8748 -6.2745,-8.8108 -7.27403,-8.78 -8.36601,-11.7478 -7.33567,-10.7791 -8.39682,-12.7472 -1.99905,0.062 -0.12327,-3.9981 -3.12184,-3.9057 -8.45846,-14.7463 -1.99905,0.062 -1.18443,-5.9663 -4.21382,-6.8734 -7.36648,-11.7786 -4.27545,-8.8724 -3.15266,-4.9052 -10.67323,-21.6814 -3.21429,-6.9042 -7.45893,-14.7772 -4.33709,-10.8715 -5.3058,-9.8412 -5.67897,-16.1139 -0.008,-0.016 -0.98786,-5.6754 8.87245,-4.2754 40.36419,-21.254 18.6828,-10.5808 21.61976,-12.6723 14.71552,-9.458 9.77953,-7.3048 10.74824,-8.3352 10.68661,-10.3343 8.68755,-10.2726 8.65674,-11.2721 7.50313,-16.2389 2.56713,-14.0858 0.96871,-1.0304 -0.70879,-22.989 -4.55281,-17.8682 -5.4907,-15.8383 -7.36648,-11.7786 -6.30532,-9.8104 -4.183,-5.8739 -12.48737,-15.6225 -19.57651,-18.40564 -8.21192,-6.75014 -11.27212,-8.65674 -5.09008,-2.84448 -3.09103,-2.90613 -12.24084,-7.62639 -18.33044,-10.44007 -8.15029,-4.75109 -8.08865,-2.75204 -16.23894,-7.50313 -10.11851,-3.68993 -12.08676,-2.62877 -0.0616,-1.99905 -3.9981,0.12327 -0.0616,-1.99905 -14.08581,-2.56714 -18.14553,-4.44291 -32.16971,-5.01101 -43.9791,1.35595 -22.92745,2.70784 -1.96823,1.06116 -17.899,3.55329 -11.87103,4.3679 -12.87056,4.39872 -16.74539,8.52009 -6.90423,3.2143 -8.84164,5.27498 -17.62164,12.549 -13.65436,11.42622 -21.31158,22.66752 -11.56286,14.36327 -12.43912,18.3921 -5.71979,9.1806 -9.44055,18.2997 -7.50314,16.2389 -2.78285,7.0891 -4.68946,10.1494 -6.47278,17.2076 -2.78286,7.0891 -5.44244,18.1764 -5.34999,21.1749 -4.28883,23.1432 -2.44387,18.0839 1.60248,51.9753 2.21477,6.935 7.76711,24.7724 5.27497,8.8417 1.99905,-0.062 0.0616,1.9991 9.36553,11.7169 5.12089,3.844 11.24132,7.6572 12.14839,4.6279 10.0877,2.6904 15.05451,1.5368 23.9886,-0.7396 22.39686,-3.692 0.49977,-0.015 6.96585,-1.2153 16.89948,-3.5224 24.86486,-4.7685 -0.0616,-1.9991 7.9962,-0.2465 22.12007,-5.8252 13.6163,-3.2804 11.31423,-3.9209 5.57514,-1.7039 8.91339,-1.1736 1.21524,6.9658 6.7984,25.8028 5.55233,17.8373 3.49165,15.9 2.15313,4.936 5.64478,20.8359 4.49118,15.8691 5.55233,17.8374 4.49117,15.8691 4.49118,15.8692 3.24511,7.9037 3.30674,9.9028 4.52199,16.8687 3.24511,7.9037 8.76663,24.7416 5.42907,13.8393 4.33708,10.8715 3.2143,6.9042 4.33709,10.8715 3.15266,4.9052 5.36743,11.8402 5.33661,10.8407 4.21382,6.8734 4.30627,9.872 5.21334,6.8426 6.33614,10.8099 1.99905,-0.062 0.0616,1.9991 12.48737,15.6226 8.27355,8.7492 5.15171,4.8435 10.30342,9.6871 14.30153,9.5638 10.18015,5.689 10.11852,3.6899 8.08865,2.752 12.08676,2.6288 24.98813,-0.7704 13.93171,-2.4305 7.90375,-3.2451 15.8075,-6.4902 10.74824,-8.3352 -0.0616,-1.9991 3.96728,-1.1228 0.90707,-3.0294 1.99905,-0.062 0.90708,-3.0294 5.81224,-6.182 1.81415,-6.0588 1.99905,-0.062 1.78333,-7.0583 2.99858,-0.092 8.30437,9.7487 10.30342,9.6871 14.30152,9.5638 7.05836,1.7833 0.0616,1.9991 9.11906,3.7207 16.14659,4.5046 18.11486,3.4433 43.9789,-1.3559 9.9336,-2.3072 17.8682,-4.5528 13.7776,-7.4281 6.9042,-3.2143 4.8744,-4.1522 8.7492,-8.2736 7.7804,-7.2432 0.704,-0.9988 1.0591,0.6318 22.9824,5.6694 9.2821,0.136 13.5027,-2.4017 14.6721,-4.2745 8.7692,-3.5688 6.578,-3.3996 7.581,-4.5874 6.0677,-4.2359 7.9146,-5.9343 12.9608,-11.8659 7.9044,-8.8025 8.0788,-9.4799 6.5495,-9.1437 5.3798,-7.2787 3.6996,-6.2576 11.5934,-17.9361 8.8945,-15.7269 6.3803,-11.3348 5.7029,-11.5015 6.3804,-11.3348 5.7032,-11.4938 5.3693,-10.1546 7.2142,-14.706 7.5475,-16.0683 8.5506,-17.2482 7.3808,-15.391 5.2029,-9.4696 2.032,0.5001 5.5799,3.5251 18.9469,10.4054 7.1016,3.189 2.3679,2.0139 11.5015,5.7029 11.6685,5.0334 11.4937,5.7032 9.3002,3.004 16.8943,4.1688 8.4458,0.6462 7.9355,-0.1896 7.5914,-1.7114 7.2554,-3.2329 8.7587,-6.4449 8.915,-9.9903 8.2171,-15.9014 4.0226,-10.4806 5.495,-22.3049 1.9777,-16.7251 0.3026,-9.9593 -0.398,-18.7389 -2.2427,-14.1798 -2.2323,-11.3038 -2.2219,-8.4355 -3.579,-11.6374 -3.0661,-7.9249 -3.066,-7.9249 -4.4128,-8.2586 -3.3996,-6.5781 -4.7541,-6.9036 -4.2359,-6.0676 -6.4448,-8.7588 -8.4769,-9.2587 -5.2466,-4.8797 -7.112,-6.0572 -4.2331,-3.1913 -4.736,-4.0357 -6.0985,-4.3688 -6.2576,-3.6995 -6.2574,-3.6918 -7.7789,-3.3556 -5.0772,-2.6807 -10.6473,-3.3454 -26.3611,-6.4954 -5.5698,-0.6568 -14.8598,-0.8002 -12.8354,-0.2921 -21.2711,1.922 -4.5564,1.0315 -5.9035,0.6901 -10.4597,1.7216 -10.8009,3.0765 -12.4815,4.0897 -7.9249,3.066 -11.2934,5.1004 -9.9465,5.442 -10.2802,6.781 -7.0704,5.4313 -7.0784,5.4239 -7.404,6.7782 -10.9368,12.3586 -7.8939,11.6785 -4.8589,10.9909 -1.5008,6.0804 -0.6566,5.5775 1.5549,11.1371 4.0795,9.6133 4.754,6.9035 5.08,5.5571 16.5916,14.1282 12.6998,9.5819 8.4588,6.3909 10.4907,6.8909 6.6013,5.2131 6.2574,3.6917 6.0985,4.3689 6.2573,3.6917 -3.022,6.4321 -9.4051,14.8829 -6.3803,11.3348 -5.3799,7.2785 -5.7131,8.6334 -6.5497,9.1359 -4.2102,5.4135 -5.5465,7.956 -2.858,2.8784 -7.4015,9.6468 -8.0709,9.4876 -7.7376,8.1251 -10.4365,10.3344 -2.858,2.8784 -5.7237,5.7573 -8.0814,6.6116 -2.8657,2.8787 -3.4796,2.4912 -5.2791,3.9537 -3.535,2.7196 -4.2127,2.545 -2.9505,1.9044 -1.976,-34.1741 -1.1844,-5.9663 -4.2929,-41.8876 -2.3689,-11.9327 -3.9231,-29.8933 -1.0611,-1.9682 -8.5684,-50.7601 -2.3072,-9.9336 -6.1378,-36.8283 -3.615,-19.8981 -2.5537,-17.9298 -2.4305,-13.9317 -4.861,-27.8634 -7.2472,-72.8113 -4.9709,-63.8771 -4.4993,-145.93072 0.6605,-11.02559 -0.5547,-17.99145 35.9829,-1.10941 16.9303,-2.52294 28.9554,-1.89322 14.9621,-1.46178 28.9554,-1.89322 6.9659,-1.21526 41.8876,-4.29289 14.098,-2.61538 9.7981,-1.1228 3.9981,-0.12327 19.9289,-2.61539 9.9336,-2.30722 25.8027,-6.7984 15.8692,-4.49117 19.8056,-6.61349 13.8392,-5.42907 -0.062,-1.99905 3.9981,-0.12326 13.7468,-8.42764 14.7155,-9.45798 8.7184,-9.27308 11.5937,-13.36363 5.689,-10.18016 7.5031,-16.23893 5.3808,-20.17541 1.5676,-14.05498 -0.7396,-23.9886 -1.431,-13.96254 -4.5528,-17.86818 -3.2451,-7.90375 -3.3067,-9.90281 -7.5206,-16.7762 -12.6723,-21.61975 -8.366,-11.74776 -9.3347,-10.71743 -12.4874,-15.62259 -9.3039,-9.7179 -7.2432,-7.78048 -12.3641,-11.6245 -7.2432,-7.78048 -8.2119,-6.75013 -5.1517,-4.84354 -5.1825,-5.84307 -6.1513,-4.81272 -8.2427,-7.74967 -14.4556,-14.56143 -8.2119,-6.75014 -7.2124,-6.78096 -8.212,-6.75014 -7.2123,-6.78096 -8.212,-6.75014 -12.3024,-9.62545 -10.2418,-7.68803 -5.1209,-3.84401 -4.0598,-1.87578 -0.062,-1.99905 -5.0901,-2.84449 -11.2413,-7.65722 -5.1517,-4.84354 -7.0891,-2.78285 -11.2413,-7.65721 -14.2399,-7.56477 -14.2399,-7.56476 -8.0886,-2.75204 -7.12,-3.78238 -19.2375,-7.41067 -20.237,-7.37986 -22.1745,-5.31918 -18.1455,-4.44292 -16.0541,-1.50597 -10.0568,-1.69088 -20.0522,-1.38271 -2.0299,-0.93789 z"
         sodipodi:insensitive="true" /></g></g><metadata
     id="metadata1"><rdf:RDF><cc:Work
         rdf:about=""><dc:creator><cc:Agent><dc:title>PJ568</dc:title></cc:Agent></dc:creator><cc:license
           rdf:resource="http://creativecommons.org/licenses/by-sa/4.0/" /></cc:Work><cc:License
         rdf:about="http://creativecommons.org/licenses/by-sa/4.0/"><cc:permits
           rdf:resource="http://creativecommons.org/ns#Reproduction" /><cc:permits
           rdf:resource="http://creativecommons.org/ns#Distribution" /><cc:requires
           rdf:resource="http://creativecommons.org/ns#Notice" /><cc:requires
           rdf:resource="http://creativecommons.org/ns#Attribution" /><cc:permits
           rdf:resource="http://creativecommons.org/ns#DerivativeWorks" /><cc:requires
           rdf:resource="http://creativecommons.org/ns#ShareAlike" /></cc:License></rdf:RDF></metadata></svg>
